<svg xmlns="http://www.w3.org/2000/svg" version="1.1" xmlns:xlink="http://www.w3.org/1999/xlink" xmlns:svgjs="http://svgjs.com/svgjs" width="2800" height="155" preserveAspectRatio="none" viewBox="0 0 2800 155"><g mask="url(&quot;#SvgjsMask1577&quot;)" fill="none"><rect width="2800" height="155" x="0" y="0" fill="rgba(225, 241, 255, 1)"></rect><path d="M2940 155L0 155 L0 112.39Q75.63 48.03, 140 123.66Q262.76 13.09, 373.3333333333333 135.85Q426.98 49.5, 513.3333333333333 103.14Q593.04 42.85, 653.3333333333333 122.56Q777.52 13.41, 886.6666666666665 137.6Q986.51 4.11, 1119.9999999999998 103.95Q1199.43 43.38, 1259.9999999999998 122.82Q1381.98 11.46, 1493.333333333333 133.44Q1551.75 51.86, 1633.333333333333 110.28Q1755.93 -0.46, 1866.6666666666663 122.14Q1989.17 11.31, 2099.9999999999995 133.82Q2201.83 2.31, 2333.333333333333 104.14Q2456.97 -5.56, 2566.6666666666665 118.08Q2690.18 8.26, 2800 131.77Q2857.67 49.44, 2940 107.11z" fill="rgba(251, 251, 251, 1)"></path><path d="M2986.666666666667 155L0 155 L0 151.53Q116.74 34.94, 233.33333333333331 151.68Q339.77 24.78, 466.66666666666663 131.22Q600.47 31.69, 700 165.5Q809.87 42.03, 933.3333333333333 151.9Q1041.41 26.64, 1166.6666666666665 134.72Q1251.84 79.89, 1306.6666666666665 165.06Q1370.34 88.74, 1446.6666666666665 152.41Q1553.4 25.81, 1679.9999999999998 132.54Q1812.18 31.38, 1913.333333333333 163.56Q1976.55 86.78, 2053.333333333333 149.99Q2163.69 27.01, 2286.6666666666665 137.37Q2416.86 34.23, 2520 164.43Q2630.87 41.97, 2753.3333333333335 152.84Q2858.38 24.55, 2986.666666666667 129.6z" fill="rgba(255, 255, 255, 1)"></path></g><defs><mask id="SvgjsMask1577"><rect width="2800" height="155" fill="#ffffff"></rect></mask></defs></svg>